inDegrees=yes
name=ik_S53_A07_T02
DataType=double
version=3
OpenSimVersion=4.3-2021-08-27-4bc7ad9
endheader
time	pelvis_tilt	pelvis_list	pelvis_rotation	pelvis_tx	pelvis_ty	pelvis_tz	hip_flexion_r	hip_adduction_r	hip_rotation_r	knee_angle_r	knee_angle_r_beta	ankle_angle_r	subtalar_angle_r	mtp_angle_r	hip_flexion_l	hip_adduction_l	hip_rotation_l	knee_angle_l	knee_angle_l_beta	ankle_angle_l	subtalar_angle_l	mtp_angle_l	lumbar_extension	lumbar_bending	lumbar_rotation	arm_flex_r	arm_add_r	arm_rot_r	elbow_flex_r	pro_sup_r	wrist_flex_r	wrist_dev_r	arm_flex_l	arm_add_l	arm_rot_l	elbow_flex_l	pro_sup_l	wrist_flex_l	wrist_dev_l
0	0	0	0	0	0.9399999999999999	0	0	0	0	0	0	0	0	0	0	0	0	0	0	0	0	0	0	0	0	0	0	0	0	89.99999999963507	0	0	0	0	0	0	89.99999999869995	0	0
0.02	-5.491689050465998	0.08842856100923421	19.29582010004799	0	0.9399999999999999	0	3.4375715250453	-1.603234445793079	-1.157084039654282	5.347297240439259	0.09332794292847195	0	0	0	3.4375715250453	-1.603234445793079	-1.157084039654282	5.347297240439259	0.09332794292847195	0	0	0	-2.72227172429292	-3.87918713344647	0.6893598863066425	15.00098493141735	-1.562699625773295	0.5676556287107223	47.94696567397131	129.4560209680746	0	0	18.87856416109678	-6.975659037701639	-3.720315365912177	44.08718389875971	125.4372834454478	0	0
0.04	-5.498191376222137	0.1130418476726625	19.3026555869933	0	0.9399999999999999	0	3.438921485256891	-1.603908752929011	-1.15754300146252	5.349090810052874	0.09335924662359325	4.804828474242369e-35	0	0	3.438921485256891	-1.603908752929011	-1.15754300146252	5.349090810052874	0.09335924662359325	4.804828474242369e-35	0	0	-2.720328580416788	-3.85381429536962	0.6915280088054784	15.00675746347713	-1.562470357177589	0.5656396608571852	47.94392703342039	129.4559424804688	0	0	18.88084621404577	-6.988653462133673	-3.71898308960444	44.08154553333095	125.4483976734487	0	0
0.06	-5.324982349188418	-0.05368876475707732	19.57681733532729	0	0.9399999999999999	0	31.73361607189025	-16.43210884480602	-10.03587583921021	53.72884757843475	0.9377452935458686	0	0	0	31.73361607189025	-16.43210884480602	-10.03587583921021	53.72884757843475	0.9377452935458686	0	0	0	-2.848136904506078	-3.554249515809524	0.4572448643669547	15.04278194114532	-1.603754754263625	0.5463761342733139	47.89359411275206	129.457521546121	0	0	18.92869309966248	-6.957131915712953	-3.740207803026693	44.00035014784996	125.4837374329962	0	0
0.08	-5.323869618129594	-0.04384952747499839	19.57485628216734	0	0.9399999999999999	0	31.75682791823332	-16.38902663505752	-10.03572640899505	53.73026017966897	0.9377699480884236	0	0	0	31.75682791823332	-16.38902663505752	-10.03572640899505	53.73026017966897	0.9377699480884236	0	0	0	-2.846394531588059	-3.539235905941304	0.4579573113827295	15.04969440539085	-1.570650857560192	0.5477446733702606	47.93952481086565	129.4086654043245	0	0	18.91438101858811	-6.933642273366381	-3.749658428381854	43.9603667386206	125.542002737381	0	0
0.1	-5.335614449172544	-0.01865925831093044	19.56082165813689	0	0.9399999999999999	0	31.75864181707443	-16.38602071347373	-10.03571585553563	53.73037435203222	0.937771940772077	0	0	0	31.75864181707443	-16.38602071347373	-10.03571585553563	53.73037435203222	0.937771940772077	0	0	0	-2.849249131850635	-3.511162596534152	0.4599591296487917	15.06232840449022	-1.61344184721906	0.5750198571903751	47.98327086223868	129.3733965335139	0	0	18.93564006345228	-6.999303654681126	-3.702712878878655	43.95556286891428	125.4968350374822	0	0
0.12	-5.339915956690907	-0.003411954025724958	19.55586770957521	0	0.9399999999999999	0	31.78552563350856	-16.33499168764115	-10.03554135168521	53.7319968265173	0.9378002582938714	0	0	0	31.78552563350856	-16.33499168764115	-10.03554135168521	53.7319968265173	0.9378002582938714	0	0	0	-2.851194326067107	-3.48826529225557	0.4606137008611292	15.06359960661341	-1.639479857694478	0.6020150949863934	48.00691310546267	129.3450218607935	0	0	18.92848293937009	-6.967066961910069	-3.697626288916892	43.93769350680404	125.4934669513498	0	0
0.14	-5.346214271326667	0.01240448236018284	19.52428794364481	0	0.9399999999999999	0	31.78917451453671	-16.32892410733687	-10.03552005122757	53.73222440042329	0.9378042302078224	0	0	0	31.78917451453671	-16.32892410733687	-10.03552005122757	53.73222440042329	0.9378042302078224	0	0	0	-2.852280875736676	-3.470752273365815	0.4703458906103307	15.07275815623323	-1.64283919800978	0.6405283120221434	48.07397719329543	129.2003068356195	0	0	18.90838997845509	-7.02333406134139	-3.534661701668127	43.95127858162436	125.340054687825	0	0
0.16	-5.344830375941605	0.01980784363759074	19.50838930103149	0	0.9399999999999999	0	31.81295265467412	-16.30088521736619	-10.03539914640077	53.73381715073076	0.9378320289448498	0	0	0	31.81295265467412	-16.30088521736619	-10.03539914640077	53.73381715073076	0.9378320289448498	0	0	0	-2.851412240395958	-3.457159258295564	0.4670520296807393	15.06846367630768	-1.663885224460214	0.6665807226499616	48.09212825255852	129.1906541193766	0	0	18.89328048729086	-7.005842202526109	-3.556632936192588	43.93489976216006	125.3227772984202	0	0
0.18	-5.357779849846197	0.02406008446127005	19.47843623795777	0	0.9399999999999999	0	31.81588766721313	-16.29602824088266	-10.0353820588398	53.73400061388657	0.937835230980975	0	0	0	31.81588766721313	-16.29602824088266	-10.0353820588398	53.73400061388657	0.937835230980975	0	0	0	-2.862557355691249	-3.4483889865284	0.4748593161268471	15.06145037476154	-1.66750192435552	0.6936588142836183	48.10990526944371	129.1919519786858	0	0	18.89340521775608	-7.039265812610961	-3.410517374354297	43.95537407180915	125.1876349627603	0	0
0.2	-5.361600698863234	0.01603118281941598	19.46720332294086	0	0.9399999999999999	0	31.85828938009045	-16.23395376118459	-10.03514733887146	53.73671438325211	0.9378825951915433	0	0	0	31.85828938009045	-16.23395376118459	-10.03514733887146	53.73671438325211	0.9378825951915433	0	0	0	-2.873536223903066	-3.443600698333252	0.4838442250173122	15.08016030266005	-1.664643986931674	0.6821913372099095	48.18794998489331	129.0808180428687	0	0	18.9209536082514	-7.049331822150078	-3.348587611219845	43.97526111674014	125.1005960371761	0	0
0.22	-5.358309090281722	0.01645505058162159	19.46726782440323	0	0.9399999999999999	0	31.88784333994814	-16.18250990058025	-10.03496465513866	53.73853599268099	0.9379143882737627	0	0	0	31.88784333994814	-16.18250990058025	-10.03496465513866	53.73853599268099	0.9379143882737627	0	0	0	-2.873557942020311	-3.43694824601412	0.4936127071479304	15.06131104654359	-1.671433061204644	0.6440284906471996	48.19196349956461	129.037772201633	0	0	18.93287550011936	-7.032730316956567	-3.322840216963601	43.95838773491663	125.0668929821574	0	0
0.24	-5.350839067757422	0.008335634251493409	19.45391079609249	0	0.9399999999999999	0	31.91215105740447	-16.14223434577795	-10.03481999669466	53.74005456906269	0.9379408924315663	0	0	0	31.91215105740447	-16.14223434577795	-10.03481999669466	53.74005456906269	0.9379408924315663	0	0	0	-2.87195345931072	-3.44029547941733	0.4880823397839001	15.05240146243461	-1.684167906493234	0.638544619531957	48.21978598834435	129.0249819972603	0	0	18.93313374175951	-7.044257632193876	-3.321950312918898	43.96637172826656	125.0512603376494	0	0
0.26	-5.347142827114225	-0.001299630177425626	19.45092356386304	0	0.9399999999999999	0	31.93832709688212	-16.10206067541353	-10.03467043065505	53.74171811635041	0.9379699268089997	0	0	0	31.93832709688212	-16.10206067541353	-10.03467043065505	53.74171811635041	0.9379699268089997	0	0	0	-2.874714522585368	-3.443849936044362	0.4976509081133756	15.02653428138614	-1.707776196384157	0.5828992726679977	48.23557685879328	128.967279770906	0	0	18.94226850674303	-7.020670328120733	-3.334499118361894	43.97833627054885	125.0426675416326	0	0
0.28	-5.339120602189987	-0.01366666885785006	19.45645242041369	0	0.9399999999999999	0	31.95708024987156	-16.06833792227993	-10.03455335829994	53.74286648460321	0.9379899696160364	0	0	0	31.95708024987156	-16.06833792227993	-10.03455335829994	53.74286648460321	0.9379899696160364	0	0	0	-2.873347390900643	-3.453248456947344	0.4982676229224961	15.02250386648859	-1.68452879165456	0.5829908302648755	48.24561376445595	128.951738235454	0	0	18.95418496416725	-7.000938171030352	-3.332300678512145	43.98945156301021	125.04996337448	0	0
0.3	-5.327577121719913	-0.03084180591899259	19.4719413089844	0	0.9399999999999999	0	31.97402459060898	-16.03744946834019	-10.03444664368933	53.74390219932077	0.9380080462479692	0	0	0	31.97402459060898	-16.03744946834019	-10.03444664368933	53.74390219932077	0.9380080462479692	0	0	0	-2.870008658296938	-3.46899368142328	0.4996884767184961	14.99772785036729	-1.705451024414614	0.5947834243290182	48.23384941361495	128.924137340513	0	0	18.95160547250945	-7.023928951768092	-3.338973448116579	43.97220424612941	125.0776654378953	0	0
0.32	-5.324701550923855	-0.04976056393708162	19.48215705608823	0	0.9399999999999999	0	31.99302563910086	-16.00377587082163	-10.03432921690789	53.74507007254557	0.9380284294809879	0	0	0	31.99302563910086	-16.00377587082163	-10.03432921690789	53.74507007254557	0.9380284294809879	0	0	0	-2.875654378899842	-3.482712292602595	0.4973411276480957	14.9720753764834	-1.712874056513415	0.62287270124927	48.22058736925079	128.9221352907929	0	0	18.98480107785402	-7.018637872173294	-3.345481567814445	43.98289847677156	125.0947171863453	0	0
0.34	-5.311325651463386	-0.06790093356642304	19.49632873957636	0	0.9399999999999999	0	32.01583817702795	-15.96011726640297	-10.03417987170548	53.74644082691223	0.9380523536579221	0	0	0	32.01583817702795	-15.96011726640297	-10.03417987170548	53.74644082691223	0.9380523536579221	0	0	0	-2.871528055905757	-3.49834678747896	0.495766990790307	14.94695205413403	-1.704792797428759	0.6540794578551938	48.22971261006413	128.9018553111865	0	0	19.00839596738444	-6.978977626004892	-3.361877412961331	43.98296863433305	125.1141596374283	0	0
0.36	-5.306555372921403	-0.08607867330711937	19.49787114001818	0	0.9399999999999999	0	32.04971941653366	-15.90890217873878	-10.03398840939704	53.748594727779	0.9380899463198089	0	0	0	32.04971941653366	-15.90890217873878	-10.03398840939704	53.748594727779	0.9380899463198089	0	0	0	-2.87698208124253	-3.507666102669632	0.4939126063500158	14.94746773082769	-1.678565620549024	0.6523281829156474	48.26849453018919	128.8463816074969	0	0	19.02755577643102	-6.980917569341877	-3.37539146851218	44.03428444811195	125.0892579769184	0	0
